<?xml version="1.0" encoding="utf-8"?>
<!-- Generator: Adobe Illustrator 19.2.0, SVG Export Plug-In . SVG Version: 6.00 Build 0)  -->
<svg version="1.1" id="Layer_1" xmlns="http://www.w3.org/2000/svg" xmlns:xlink="http://www.w3.org/1999/xlink" x="0px" y="0px"
	 viewBox="0 0 603.532 148.236" style="enable-background:new 0 0 603.532 148.236;" xml:space="preserve">
<g>
	<path d="M118.083,58.956H65.402v26.785h19.971v22.305c-1.56,0.576-6.239,1.154-10.917,1.154c-21.634,0-37.421-14.039-37.421-38.27
		c0-26.345,17.931-37.499,39.567-37.499c15.008,0,23.779,2.31,31.186,5.387l7.017-27.692c-6.822-3.27-20.271-6.346-38.008-6.346
		C34.111,4.78,0.195,27.664,0,72.661c0,18.654,6.432,35.385,18.712,46.924c11.89,11.152,29.433,17.498,55.355,17.498l44.016-0.096
		V58.956z"/>
	<path d="M245.863,57.435c-16.201-6.082-23.062-8.744-23.062-15.208c0-5.702,5.716-9.503,16.2-9.503
		c12.959,0,22.492,3.611,28.018,6.082l0.256-30.046c-7.381-2.39-16.361-3.979-27.893-3.979c-32.402,0-51.461,17.488-51.461,40.109
		c0,19.01,14.295,30.983,36.021,38.59c14.486,4.941,20.205,8.553,20.205,14.824c0,6.465-5.719,10.455-17.535,10.455
		c-11.461,0-50.805-0.014-58.758-0.014V58.952h-1.07c-4.412,2.672-9.566,4.241-15.104,4.241c-5.533,0-10.691-1.569-15.102-4.241
		h-0.864v78.131h32.14h56.66c37.549,0,54.893-19.008,54.893-41.06C279.408,78.155,268.926,65.798,245.863,57.435z"/>
	<g>
		<path style="fill:#524D49;" d="M328.42,40.896c-1.934,0.604-5.754,1.596-10.268,1.596c-5.06,0-9.227-1.121-12.501-3.839
			c-2.877-2.416-4.663-6.298-4.663-10.827c0.05-8.671,6.896-15.012,18.106-15.012c3.869,0,6.896,0.733,8.333,1.337l-1.041,3.062
			c-1.786-0.689-4.019-1.251-7.392-1.251c-8.135,0-13.443,4.4-13.443,11.69c0,7.376,5.109,11.733,12.897,11.733
			c2.828,0,4.762-0.346,5.754-0.776v-8.671h-6.795v-3.02h11.012V40.896z"/>
		<path style="fill:#524D49;" d="M352.231,28.559h-12.997V39.04h14.485v3.149h-18.801V13.115h18.057v3.149h-13.741v9.188h12.997
			V28.559z"/>
		<path style="fill:#524D49;" d="M387.552,27.351c0,10.008-6.995,15.313-15.527,15.313c-8.83,0-15.03-5.953-15.03-14.753
			c0-9.231,6.598-15.271,15.526-15.271C381.648,12.641,387.552,18.724,387.552,27.351z M361.607,27.825
			c0,6.212,3.869,11.776,10.665,11.776c6.846,0,10.715-5.479,10.715-12.078c0-5.78-3.473-11.82-10.665-11.82
			C365.179,15.703,361.607,21.44,361.607,27.825z"/>
		<path style="fill:#524D49;" d="M392.313,13.461c2.083-0.303,4.812-0.562,8.284-0.562c4.266,0,7.391,0.863,9.375,2.416
			c1.836,1.38,2.927,3.494,2.927,6.082c0,2.632-0.893,4.702-2.579,6.212c-2.282,2.113-6.003,3.192-10.219,3.192
			c-1.29,0-2.48-0.044-3.473-0.259v11.646h-4.315V13.461z M396.629,27.48c0.942,0.216,2.133,0.303,3.571,0.303
			c5.209,0,8.384-2.2,8.384-6.212c0-3.839-3.125-5.694-7.888-5.694c-1.885,0-3.323,0.13-4.067,0.302V27.48z"/>
		<path style="fill:#524D49;" d="M446.633,27.351c0,10.008-6.995,15.313-15.527,15.313c-8.83,0-15.03-5.953-15.03-14.753
			c0-9.231,6.598-15.271,15.526-15.271C440.729,12.641,446.633,18.724,446.633,27.351z M420.688,27.825
			c0,6.212,3.869,11.776,10.665,11.776c6.846,0,10.715-5.479,10.715-12.078c0-5.78-3.473-11.82-10.665-11.82
			C424.26,15.703,420.688,21.44,420.688,27.825z"/>
		<path style="fill:#524D49;" d="M451.395,13.115h4.315V39.04h14.286v3.149h-18.602V13.115z"/>
	</g>
	<g>
		<path style="fill:#524D49;" d="M471.934,13.115v29.074h-4.315V13.115H471.934z"/>
		<path style="fill:#524D49;" d="M486.27,16.308h-10.17v-3.192h24.754v3.192h-10.219v25.882h-4.365V16.308z"/>
		<path style="fill:#524D49;" d="M509.387,13.115v29.074h-4.315V13.115H509.387z"/>
		<path style="fill:#524D49;" d="M540.292,41.24c-1.588,0.69-4.763,1.381-8.83,1.381c-9.425,0-16.519-5.177-16.519-14.71
			c0-9.102,7.094-15.271,17.461-15.271c4.167,0,6.796,0.776,7.938,1.294l-1.042,3.063c-1.637-0.69-3.969-1.208-6.746-1.208
			c-7.838,0-13.047,4.356-13.047,11.992c0,7.117,4.713,11.689,12.848,11.689c2.63,0,5.309-0.475,7.045-1.208L540.292,41.24z"/>
		<path style="fill:#524D49;" d="M551.105,33.045l-3.472,9.145h-4.465l11.359-29.074h5.209l11.409,29.074h-4.613l-3.571-9.145
			H551.105z M562.069,30.111l-3.274-8.368c-0.744-1.898-1.24-3.624-1.736-5.307h-0.1c-0.496,1.726-1.041,3.494-1.687,5.263
			l-3.273,8.412H562.069z"/>
		<path style="fill:#524D49;" d="M575.811,13.115h4.315V39.04h14.286v3.149h-18.602V13.115z"/>
	</g>
	<g>
		<path style="fill:#524D49;" d="M309.892,60.523v29.074h-4.353V60.523H309.892z"/>
		<path style="fill:#524D49;" d="M317.648,89.597V60.523h4.753l10.807,14.71c2.502,3.407,4.453,6.471,6.055,9.446l0.1-0.043
			c-0.4-3.882-0.5-7.419-0.5-11.948V60.523h4.103v29.074h-4.403l-10.707-14.753c-2.352-3.235-4.603-6.557-6.304-9.705l-0.15,0.043
			c0.25,3.666,0.35,7.16,0.35,11.991v12.424H317.648z"/>
		<path style="fill:#524D49;" d="M358.028,63.715h-10.257v-3.192h24.967v3.192h-10.308v25.882h-4.402V63.715z"/>
		<path style="fill:#524D49;" d="M395.406,75.966h-13.109v10.481h14.61v3.149h-18.963V60.523h18.212v3.149h-13.859v9.188h13.109
			V75.966z"/>
		<path style="fill:#524D49;" d="M403.413,60.523h4.353v25.925h14.41v3.149h-18.763V60.523z"/>
		<path style="fill:#524D49;" d="M427.28,60.523h4.353v25.925h14.41v3.149H427.28V60.523z"/>
		<path style="fill:#524D49;" d="M455.5,60.523v29.074h-4.353V60.523H455.5z"/>
		<path style="fill:#524D49;" d="M489.224,88.303c-1.951,0.604-5.804,1.596-10.356,1.596c-5.104,0-9.307-1.121-12.609-3.839
			c-2.901-2.416-4.703-6.298-4.703-10.827c0.051-8.671,6.955-15.012,18.263-15.012c3.902,0,6.955,0.733,8.405,1.337l-1.051,3.063
			c-1.801-0.689-4.053-1.25-7.454-1.25c-8.206,0-13.56,4.399-13.56,11.689c0,7.376,5.153,11.733,13.009,11.733
			c2.852,0,4.803-0.346,5.804-0.776v-8.671h-6.854v-3.02h11.107V88.303z"/>
		<path style="fill:#524D49;" d="M513.694,75.966h-13.109v10.481h14.61v3.149h-18.963V60.523h18.212v3.149h-13.859v9.188h13.109
			V75.966z"/>
		<path style="fill:#524D49;" d="M520.751,89.597V60.523h4.753l10.808,14.71c2.501,3.407,4.453,6.471,6.054,9.446l0.101-0.043
			c-0.4-3.882-0.501-7.419-0.501-11.948V60.523h4.103v29.074h-4.402l-10.707-14.753c-2.352-3.235-4.604-6.557-6.305-9.705
			l-0.15,0.043c0.251,3.666,0.351,7.16,0.351,11.991v12.424H520.751z"/>
		<path style="fill:#524D49;" d="M577.791,88.648c-1.601,0.69-4.803,1.381-8.906,1.381c-9.506,0-16.661-5.177-16.661-14.71
			c0-9.102,7.155-15.271,17.612-15.271c4.203,0,6.854,0.776,8.005,1.294l-1.05,3.063c-1.651-0.69-4.003-1.208-6.805-1.208
			c-7.905,0-13.159,4.356-13.159,11.992c0,7.117,4.753,11.689,12.959,11.689c2.651,0,5.354-0.475,7.104-1.208L577.791,88.648z"/>
		<path style="fill:#524D49;" d="M600.659,75.966H587.55v10.481h14.61v3.149h-18.963V60.523h18.212v3.149H587.55v9.188h13.109
			V75.966z"/>
	</g>
	<g>
		<g>
			<path style="fill:#524D49;" d="M463.256,132.88c1.969,1.035,4.846,1.897,7.874,1.897c4.492,0,7.117-2.027,7.117-4.96
				c0-2.718-1.817-4.271-6.41-5.78c-5.553-1.683-8.985-4.142-8.985-8.239c0-4.529,4.392-7.895,11.004-7.895
				c3.483,0,6.007,0.69,7.521,1.424l-1.212,3.062c-1.11-0.518-3.382-1.38-6.461-1.38c-4.644,0-6.41,2.372-6.41,4.356
				c0,2.718,2.069,4.055,6.764,5.607c5.755,1.898,8.682,4.271,8.682,8.541c0,4.486-3.887,8.369-11.912,8.369
				c-3.281,0-6.864-0.82-8.682-1.855L463.256,132.88z"/>
		</g>
		<g>
			<path style="fill:#524D49;" d="M457.58,123.821h-13.225v10.481h14.739v3.149h-19.131v-29.074h18.374v3.149h-13.982v9.188h13.225
				V123.821z"/>
		</g>
		<g>
			<path style="fill:#524D49;" d="M435.534,136.503c-1.615,0.69-4.846,1.381-8.984,1.381c-9.591,0-16.809-5.177-16.809-14.71
				c0-9.102,7.218-15.271,17.768-15.271c4.239,0,6.915,0.776,8.076,1.294l-1.061,3.063c-1.665-0.69-4.038-1.208-6.864-1.208
				c-7.976,0-13.275,4.356-13.275,11.992c0,7.117,4.795,11.689,13.073,11.689c2.675,0,5.401-0.475,7.168-1.208L435.534,136.503z"/>
		</g>
		<g>
			<path style="fill:#524D49;" d="M405.452,108.378v29.074h-4.392v-29.074H405.452z"/>
		</g>
		<g>
			<path style="fill:#524D49;" d="M382.337,137.452l-11.104-29.074h4.744l5.301,14.321c1.463,3.926,2.726,7.463,3.634,10.871h0.101
				c0.959-3.365,2.373-7.031,3.887-10.828l5.755-14.364h4.694l-12.165,29.074H382.337z"/>
		</g>
		<g>
			<path style="fill:#524D49;" d="M349.329,108.767c2.222-0.389,5.401-0.604,8.43-0.604c4.694,0,7.723,0.733,9.843,2.373
				c1.717,1.294,2.676,3.278,2.676,5.521c0,3.839-2.827,6.384-6.411,7.419v0.13c2.625,0.776,4.189,2.847,4.997,5.866
				c1.11,4.055,1.918,6.859,2.625,7.98h-4.543c-0.555-0.819-1.312-3.321-2.271-6.945c-1.01-4.012-2.826-5.521-6.814-5.65h-4.139
				v12.596h-4.392V108.767z M353.721,122.009h4.492c4.694,0,7.673-2.199,7.673-5.521c0-3.752-3.181-5.392-7.824-5.435
				c-2.12,0-3.634,0.173-4.341,0.345V122.009z"/>
		</g>
		<g>
			<path style="fill:#524D49;" d="M344.068,123.821h-13.225v10.481h14.739v3.149h-19.131v-29.074h18.374v3.149h-13.982v9.188h13.225
				V123.821z"/>
		</g>
		<g>
			<path style="fill:#524D49;" d="M303.407,132.88c1.969,1.035,4.846,1.897,7.874,1.897c4.493,0,7.117-2.027,7.117-4.96
				c0-2.718-1.817-4.271-6.41-5.78c-5.553-1.683-8.985-4.142-8.985-8.239c0-4.529,4.392-7.895,11.004-7.895
				c3.483,0,6.006,0.69,7.521,1.424l-1.211,3.062c-1.111-0.518-3.382-1.38-6.461-1.38c-4.644,0-6.411,2.372-6.411,4.356
				c0,2.718,2.069,4.055,6.764,5.607c5.754,1.898,8.682,4.271,8.682,8.541c0,4.486-3.887,8.369-11.913,8.369
				c-3.281,0-6.865-0.82-8.682-1.855L303.407,132.88z"/>
		</g>
	</g>
	<g>
		<linearGradient id="SVGID_1_" gradientUnits="userSpaceOnUse" x1="124.7949" y1="27.5625" x2="179.1728" y2="27.5625">
			<stop  offset="0" style="stop-color:#AD1923"/>
			<stop  offset="0.1889" style="stop-color:#AB1922"/>
			<stop  offset="0.3386" style="stop-color:#A61821"/>
			<stop  offset="0.4747" style="stop-color:#9C171F"/>
			<stop  offset="0.6028" style="stop-color:#8E161C"/>
			<stop  offset="0.7254" style="stop-color:#7B1316"/>
			<stop  offset="0.8421" style="stop-color:#640F0F"/>
			<stop  offset="0.9094" style="stop-color:#530B07"/>
		</linearGradient>
		<ellipse style="fill:url(#SVGID_1_);" cx="151.983" cy="27.562" rx="27.189" ry="27.562"/>
		<radialGradient id="SVGID_2_" cx="151.9838" cy="27.5625" r="27.3764" gradientUnits="userSpaceOnUse">
			<stop  offset="0" style="stop-color:#AD1923"/>
			<stop  offset="0.4171" style="stop-color:#AC1922"/>
			<stop  offset="0.5673" style="stop-color:#A81922"/>
			<stop  offset="0.6744" style="stop-color:#A11820"/>
			<stop  offset="0.761" style="stop-color:#97171E"/>
			<stop  offset="0.8352" style="stop-color:#8A151B"/>
			<stop  offset="0.9008" style="stop-color:#791316"/>
			<stop  offset="0.9587" style="stop-color:#66100F"/>
			<stop  offset="1" style="stop-color:#530B07"/>
		</radialGradient>
		<ellipse style="opacity:0.2;fill:url(#SVGID_2_);" cx="151.983" cy="27.562" rx="27.189" ry="27.562"/>
	</g>
</g>
</svg>
