<svg xmlns="http://www.w3.org/2000/svg" width="21" height="20" viewBox="0 0 21 20">
    <path fill="#000" fill-rule="evenodd" d="M14.955 12.27l5.757 5.757a1.006 1.006 0 0 1-.006 1.422l-.233.233a1 1 0 0 1-1.423.006l-5.68-5.681a8.24 8.24 0 0 1-5.229 1.851C3.645 15.858 0 12.308 0 7.929 0 3.549 3.645 0 8.141 0s8.141 3.55 8.141 7.929a7.745 7.745 0 0 1-1.327 4.34zm-1.751-.637a6.036 6.036 0 0 0 1.27-3.704c0-3.406-2.836-6.167-6.333-6.167-3.497 0-6.332 2.761-6.332 6.167 0 3.406 2.835 6.167 6.332 6.167 1.73 0 3.297-.675 4.44-1.77.05-.116.122-.225.216-.32l.233-.233c.054-.053.112-.1.174-.14z"/>
</svg>
